<mxfile host="app.diagrams.net" modified="2023-05-24T10:48:44.354Z" agent="Mozilla/5.0 (Windows NT 10.0; Win64; x64) AppleWebKit/537.36 (KHTML, like Gecko) Chrome/113.0.0.0 Safari/537.36" etag="8bhcWdY1zgWjoPO9HwWH" version="21.3.2" type="device">
  <diagram id="ou-2T_0K5Y9kjUkwNd9F" name="Page-1">
    <mxGraphModel dx="1050" dy="541" grid="0" gridSize="10" guides="1" tooltips="1" connect="1" arrows="1" fold="1" page="1" pageScale="1" pageWidth="850" pageHeight="1100" math="0" shadow="0">
      <root>
        <mxCell id="0" />
        <mxCell id="1" parent="0" />
        <mxCell id="oDLqHF4-OEQmuZAPJv7p-26" value="" style="rounded=0;whiteSpace=wrap;html=1;fillColor=#FFCCCC;" parent="1" vertex="1">
          <mxGeometry x="40" y="390" width="590" height="230" as="geometry" />
        </mxCell>
        <mxCell id="oDLqHF4-OEQmuZAPJv7p-25" value="" style="rounded=0;whiteSpace=wrap;html=1;fillColor=#CCFFCC;" parent="1" vertex="1">
          <mxGeometry x="40" y="160" width="590" height="230" as="geometry" />
        </mxCell>
        <mxCell id="oDLqHF4-OEQmuZAPJv7p-1" value="NO. Justificación con ejemplo visto en clase." style="rounded=0;whiteSpace=wrap;html=1;fillColor=#99FF99;" parent="1" vertex="1">
          <mxGeometry x="70" y="190" width="120" height="60" as="geometry" />
        </mxCell>
        <mxCell id="GEmQg187ZjA0Ec73Gknf-12" style="rounded=0;orthogonalLoop=1;jettySize=auto;html=1;exitX=0;exitY=0.25;exitDx=0;exitDy=0;entryX=1;entryY=0.75;entryDx=0;entryDy=0;strokeColor=#009900;" parent="1" source="oDLqHF4-OEQmuZAPJv7p-2" target="oDLqHF4-OEQmuZAPJv7p-1" edge="1">
          <mxGeometry relative="1" as="geometry" />
        </mxCell>
        <mxCell id="oDLqHF4-OEQmuZAPJv7p-2" value="NO. Justificación vaga." style="rounded=0;whiteSpace=wrap;html=1;fillColor=#99FF99;" parent="1" vertex="1">
          <mxGeometry x="280" y="250" width="120" height="60" as="geometry" />
        </mxCell>
        <mxCell id="oDLqHF4-OEQmuZAPJv7p-18" style="rounded=0;orthogonalLoop=1;jettySize=auto;html=1;exitX=0;exitY=0.75;exitDx=0;exitDy=0;entryX=0.75;entryY=0;entryDx=0;entryDy=0;fillColor=#FF0000;strokeColor=#CC0000;" parent="1" source="oDLqHF4-OEQmuZAPJv7p-2" target="oDLqHF4-OEQmuZAPJv7p-4" edge="1">
          <mxGeometry relative="1" as="geometry" />
        </mxCell>
        <mxCell id="GEmQg187ZjA0Ec73Gknf-7" style="edgeStyle=orthogonalEdgeStyle;rounded=0;orthogonalLoop=1;jettySize=auto;html=1;exitX=0.75;exitY=1;exitDx=0;exitDy=0;entryX=0.75;entryY=0;entryDx=0;entryDy=0;strokeColor=#CC0000;" parent="1" source="oDLqHF4-OEQmuZAPJv7p-3" target="oDLqHF4-OEQmuZAPJv7p-6" edge="1">
          <mxGeometry relative="1" as="geometry" />
        </mxCell>
        <mxCell id="GEmQg187ZjA0Ec73Gknf-9" style="rounded=0;orthogonalLoop=1;jettySize=auto;html=1;exitX=0;exitY=0.75;exitDx=0;exitDy=0;entryX=0.75;entryY=0;entryDx=0;entryDy=0;strokeColor=#CC0000;" parent="1" source="oDLqHF4-OEQmuZAPJv7p-3" target="oDLqHF4-OEQmuZAPJv7p-8" edge="1">
          <mxGeometry relative="1" as="geometry" />
        </mxCell>
        <mxCell id="GEmQg187ZjA0Ec73Gknf-10" style="rounded=0;orthogonalLoop=1;jettySize=auto;html=1;exitX=0.25;exitY=0;exitDx=0;exitDy=0;entryX=1;entryY=0.25;entryDx=0;entryDy=0;strokeColor=#00CC00;" parent="1" source="oDLqHF4-OEQmuZAPJv7p-3" target="oDLqHF4-OEQmuZAPJv7p-2" edge="1">
          <mxGeometry relative="1" as="geometry" />
        </mxCell>
        <mxCell id="oDLqHF4-OEQmuZAPJv7p-3" value="NO. Sin justificar." style="rounded=0;whiteSpace=wrap;html=1;fillColor=#99FF99;" parent="1" vertex="1">
          <mxGeometry x="480" y="310" width="120" height="60" as="geometry" />
        </mxCell>
        <mxCell id="oDLqHF4-OEQmuZAPJv7p-4" value="SÍ. Justificación incorrecta." style="rounded=0;whiteSpace=wrap;html=1;fillColor=#FF9999;" parent="1" vertex="1">
          <mxGeometry x="70" y="420" width="120" height="60" as="geometry" />
        </mxCell>
        <mxCell id="oDLqHF4-OEQmuZAPJv7p-6" value="NS / NC" style="rounded=0;whiteSpace=wrap;html=1;fillColor=#FF9999;" parent="1" vertex="1">
          <mxGeometry x="480" y="420" width="120" height="60" as="geometry" />
        </mxCell>
        <mxCell id="oDLqHF4-OEQmuZAPJv7p-8" value="SÍ. Sin justificar." style="rounded=0;whiteSpace=wrap;html=1;fillColor=#FF9999;" parent="1" vertex="1">
          <mxGeometry x="280" y="420" width="120" height="60" as="geometry" />
        </mxCell>
        <mxCell id="oDLqHF4-OEQmuZAPJv7p-9" value="" style="endArrow=classic;html=1;rounded=0;entryX=0.25;entryY=1;entryDx=0;entryDy=0;exitX=0.25;exitY=0;exitDx=0;exitDy=0;strokeColor=#00CC00;" parent="1" source="oDLqHF4-OEQmuZAPJv7p-4" target="oDLqHF4-OEQmuZAPJv7p-1" edge="1">
          <mxGeometry width="50" height="50" relative="1" as="geometry">
            <mxPoint x="110" y="300" as="sourcePoint" />
            <mxPoint x="130" y="250" as="targetPoint" />
          </mxGeometry>
        </mxCell>
        <mxCell id="oDLqHF4-OEQmuZAPJv7p-28" value="2" style="rounded=0;whiteSpace=wrap;html=1;strokeColor=#330000;fillColor=#E6E6E6;" parent="1" vertex="1">
          <mxGeometry x="425" y="250" width="20" height="20" as="geometry" />
        </mxCell>
        <mxCell id="oDLqHF4-OEQmuZAPJv7p-29" value="2" style="rounded=0;whiteSpace=wrap;html=1;strokeColor=#330000;fillColor=#E6E6E6;" parent="1" vertex="1">
          <mxGeometry x="80.82" y="510" width="20" height="20" as="geometry" />
        </mxCell>
        <mxCell id="oDLqHF4-OEQmuZAPJv7p-31" value="3" style="rounded=0;whiteSpace=wrap;html=1;strokeColor=#330000;fillColor=#E6E6E6;" parent="1" vertex="1">
          <mxGeometry x="380" y="360" width="20" height="20" as="geometry" />
        </mxCell>
        <mxCell id="oDLqHF4-OEQmuZAPJv7p-34" value="2" style="rounded=0;whiteSpace=wrap;html=1;strokeColor=#330000;fillColor=#E6E6E6;" parent="1" vertex="1">
          <mxGeometry x="580" y="380" width="20" height="20" as="geometry" />
        </mxCell>
        <mxCell id="oDLqHF4-OEQmuZAPJv7p-36" value="&lt;span style=&quot;&quot; lang=&quot;ES&quot;&gt;&lt;b&gt;&lt;font color=&quot;#006600&quot;&gt;CCVA2&lt;/font&gt;&lt;/b&gt;&lt;/span&gt;" style="text;whiteSpace=wrap;html=1;" parent="1" vertex="1">
          <mxGeometry x="194.59000000000003" y="266.49" width="45.41" height="27.03" as="geometry" />
        </mxCell>
        <mxCell id="oDLqHF4-OEQmuZAPJv7p-37" value="&lt;span style=&quot;&quot; lang=&quot;ES&quot;&gt;&lt;b&gt;&lt;font color=&quot;#990000&quot;&gt;CADVA1&lt;/font&gt;&lt;/b&gt;&lt;/span&gt;" style="text;whiteSpace=wrap;html=1;" parent="1" vertex="1">
          <mxGeometry x="59.17000000000002" y="570.82" width="41.65" height="29.18" as="geometry" />
        </mxCell>
        <mxCell id="oDLqHF4-OEQmuZAPJv7p-38" value="" style="shape=flexArrow;endArrow=classic;html=1;rounded=0;strokeColor=#00CC00;fontColor=#006600;fillColor=#FFFF33;" parent="1" edge="1">
          <mxGeometry width="50" height="50" relative="1" as="geometry">
            <mxPoint x="660" y="620" as="sourcePoint" />
            <mxPoint x="660" y="160" as="targetPoint" />
          </mxGeometry>
        </mxCell>
        <mxCell id="oDLqHF4-OEQmuZAPJv7p-39" value="CORRECCIÓN DE LAS RESPUESTAS" style="rounded=0;whiteSpace=wrap;html=1;rotation=0;" parent="1" vertex="1">
          <mxGeometry x="680" y="340" width="90" height="60" as="geometry" />
        </mxCell>
        <mxCell id="GEmQg187ZjA0Ec73Gknf-1" value="" style="endArrow=classic;html=1;rounded=0;entryX=0;entryY=0.5;entryDx=0;entryDy=0;exitX=0.5;exitY=0;exitDx=0;exitDy=0;strokeColor=#00CC00;" parent="1" source="oDLqHF4-OEQmuZAPJv7p-4" target="oDLqHF4-OEQmuZAPJv7p-2" edge="1">
          <mxGeometry width="50" height="50" relative="1" as="geometry">
            <mxPoint x="110" y="430" as="sourcePoint" />
            <mxPoint x="110" y="260" as="targetPoint" />
          </mxGeometry>
        </mxCell>
        <mxCell id="GEmQg187ZjA0Ec73Gknf-2" value="" style="endArrow=classic;html=1;rounded=0;exitX=0;exitY=0.75;exitDx=0;exitDy=0;strokeColor=#CC0000;edgeStyle=orthogonalEdgeStyle;entryX=0.25;entryY=1;entryDx=0;entryDy=0;" parent="1" source="oDLqHF4-OEQmuZAPJv7p-4" target="oDLqHF4-OEQmuZAPJv7p-4" edge="1">
          <mxGeometry width="50" height="50" relative="1" as="geometry">
            <mxPoint x="110" y="430" as="sourcePoint" />
            <mxPoint x="110" y="260" as="targetPoint" />
            <Array as="points">
              <mxPoint x="60" y="465" />
              <mxPoint x="60" y="500" />
              <mxPoint x="100" y="500" />
            </Array>
          </mxGeometry>
        </mxCell>
        <mxCell id="GEmQg187ZjA0Ec73Gknf-3" value="" style="endArrow=classic;html=1;rounded=0;entryX=0.25;entryY=1;entryDx=0;entryDy=0;exitX=0.75;exitY=1;exitDx=0;exitDy=0;strokeColor=#CC0000;edgeStyle=orthogonalEdgeStyle;" parent="1" source="oDLqHF4-OEQmuZAPJv7p-4" target="oDLqHF4-OEQmuZAPJv7p-6" edge="1">
          <mxGeometry width="50" height="50" relative="1" as="geometry">
            <mxPoint x="140" y="430" as="sourcePoint" />
            <mxPoint x="290" y="290" as="targetPoint" />
            <Array as="points">
              <mxPoint x="160" y="530" />
              <mxPoint x="510" y="530" />
            </Array>
          </mxGeometry>
        </mxCell>
        <mxCell id="GEmQg187ZjA0Ec73Gknf-5" style="edgeStyle=orthogonalEdgeStyle;rounded=0;orthogonalLoop=1;jettySize=auto;html=1;exitX=0;exitY=0.75;exitDx=0;exitDy=0;entryX=0.25;entryY=1;entryDx=0;entryDy=0;strokeColor=#CC0000;" parent="1" source="oDLqHF4-OEQmuZAPJv7p-8" target="oDLqHF4-OEQmuZAPJv7p-8" edge="1">
          <mxGeometry relative="1" as="geometry">
            <Array as="points">
              <mxPoint x="260" y="465" />
              <mxPoint x="260" y="500" />
              <mxPoint x="310" y="500" />
            </Array>
          </mxGeometry>
        </mxCell>
        <mxCell id="GEmQg187ZjA0Ec73Gknf-6" value="" style="endArrow=classic;html=1;rounded=0;exitX=0.5;exitY=0;exitDx=0;exitDy=0;strokeColor=#00CC00;entryX=-0.003;entryY=0.37;entryDx=0;entryDy=0;entryPerimeter=0;" parent="1" source="oDLqHF4-OEQmuZAPJv7p-8" target="oDLqHF4-OEQmuZAPJv7p-3" edge="1">
          <mxGeometry width="50" height="50" relative="1" as="geometry">
            <mxPoint x="140" y="430" as="sourcePoint" />
            <mxPoint x="480" y="355" as="targetPoint" />
          </mxGeometry>
        </mxCell>
        <mxCell id="GEmQg187ZjA0Ec73Gknf-13" style="edgeStyle=orthogonalEdgeStyle;rounded=0;orthogonalLoop=1;jettySize=auto;html=1;exitX=0.75;exitY=0;exitDx=0;exitDy=0;entryX=1;entryY=0.25;entryDx=0;entryDy=0;strokeColor=#009900;" parent="1" source="oDLqHF4-OEQmuZAPJv7p-1" target="oDLqHF4-OEQmuZAPJv7p-1" edge="1">
          <mxGeometry relative="1" as="geometry">
            <Array as="points">
              <mxPoint x="160" y="170" />
              <mxPoint x="210" y="170" />
              <mxPoint x="210" y="205" />
            </Array>
          </mxGeometry>
        </mxCell>
        <mxCell id="GEmQg187ZjA0Ec73Gknf-14" value="4" style="rounded=0;whiteSpace=wrap;html=1;strokeColor=#330000;fillColor=#E6E6E6;" parent="1" vertex="1">
          <mxGeometry x="220" y="180.01" width="20" height="20" as="geometry" />
        </mxCell>
        <mxCell id="GEmQg187ZjA0Ec73Gknf-15" style="edgeStyle=orthogonalEdgeStyle;rounded=0;orthogonalLoop=1;jettySize=auto;html=1;exitX=0.75;exitY=0;exitDx=0;exitDy=0;entryX=1;entryY=0.25;entryDx=0;entryDy=0;strokeColor=#009900;" parent="1" source="oDLqHF4-OEQmuZAPJv7p-3" target="oDLqHF4-OEQmuZAPJv7p-3" edge="1">
          <mxGeometry relative="1" as="geometry">
            <Array as="points">
              <mxPoint x="570" y="290" />
              <mxPoint x="620" y="290" />
              <mxPoint x="620" y="325" />
            </Array>
          </mxGeometry>
        </mxCell>
        <mxCell id="GEmQg187ZjA0Ec73Gknf-16" value="&lt;span style=&quot;&quot; lang=&quot;ES&quot;&gt;&lt;b&gt;&lt;font color=&quot;#990000&quot;&gt;CAVA2&lt;/font&gt;&lt;/b&gt;&lt;/span&gt;" style="text;whiteSpace=wrap;html=1;" parent="1" vertex="1">
          <mxGeometry x="109.17000000000002" y="480.00000000000006" width="41.65" height="29.18" as="geometry" />
        </mxCell>
      </root>
    </mxGraphModel>
  </diagram>
</mxfile>
